# xmcd
#
# Track frame offsets:
# 150
# 1787
# 11389
# 12612
# 30894
# 32181
# 51509
# 52600
# 64224
# 65158
# 79597
# 80423
# 93581
# 94595
# 113793
# 114724
# 129292
# 130239
# 141719
# 143231
# 159014
# 159949
# 176787
# 178042
# 191721
# 218039
# 230047
# 242306
# 243723
# 256115
# 256993
# 272998
# 274160
#
# Disc length: 3805 seconds
#
#
# Revision: 0
# Processed by: cddbd v1.5.1PL0 Copyright (c) Steve Scherf et al.
# Submitted via: FreeRIP 2.942 
#
DISCID=ca0edb21
DTITLE=Jorge Moiséis - Gandaiá
DYEAR=2000
DGENRE=Humour
TTITLE0=Locução
TTITLE1=Gandaiá
TTITLE2=Locução
TTITLE3=Quebramos o Pau
TTITLE4=Locução
TTITLE5=Seu Adeus Doeu Demais
TTITLE6=Locução
TTITLE7=Radar
TTITLE8=Locução
TTITLE9=Linguaruda
TTITLE10=Locução
TTITLE11=Rodeio, Viola e Muié
TTITLE12=Locução
TTITLE13=Por Amor
TTITLE14=Locução
TTITLE15=Cowboy Cantor
TTITLE16=Locução
TTITLE17=Gandaiá (versão dance)
TTITLE18=Locução
TTITLE19=Minha Sogra
TTITLE20=Locução
TTITLE21=É Roça
TTITLE22=Locução
TTITLE23=Balançou, Balançou
TTITLE24=Poema Berrante
TTITLE25=Locução
TTITLE26=Rei da Zona
TTITLE27=Locução
TTITLE28=Ti Amo Porra
TTITLE29=Locução
TTITLE30=Na Minha Casa Tá Entrando Outro Macho
TTITLE31=Locução
TTITLE32=Corno Chorão
EXTD=
EXTT0=
EXTT1=
EXTT2=
EXTT3=
EXTT4=
EXTT5=
EXTT6=
EXTT7=
EXTT8=
EXTT9=
EXTT10=
EXTT11=
EXTT12=
EXTT13=
EXTT14=
EXTT15=
EXTT16=
EXTT17=
EXTT18=
EXTT19=
EXTT20=
EXTT21=
EXTT22=
EXTT23=
EXTT24=
EXTT25=
EXTT26=
EXTT27=
EXTT28=
EXTT29=
EXTT30=
EXTT31=
EXTT32=
PLAYORDER=
